/* XPM */
static char * ltris16_xpm[] = {
"16 16 48 1",
" 	c None",
".	c #000000",
"+	c #C53C3C",
"@	c #D43737",
"#	c #DD5757",
"$	c #E96C6C",
"%	c #891616",
"&	c #AD0202",
"*	c #D83434",
"=	c #EA6B6B",
"-	c #A21A1A",
";	c #D32C2C",
">	c #E56767",
",	c #EE7E7E",
"'	c #3636D3",
")	c #5858DE",
"!	c #6C6CE9",
"~	c #3C3CC7",
"{	c #D63C3C",
"]	c #D24C4C",
"^	c #D44D4D",
"/	c #0202AD",
"(	c #3434D8",
"_	c #6B6BEA",
":	c #161689",
"<	c #2C2CD3",
"[	c #6767E5",
"}	c #7E7EEE",
"|	c #1A1AA2",
"1	c #3C3CD6",
"2	c #4C4CD2",
"3	c #4D4DD4",
"4	c #3737D4",
"5	c #CFCD34",
"6	c #DBDA57",
"7	c #E9E86C",
"8	c #ADAB02",
"9	c #D8D634",
"0	c #EAE96B",
"a	c #D3D22C",
"b	c #E5E467",
"c	c #EEED7E",
"d	c #D6D43C",
"e	c #D2D04C",
"f	c #D4D24D",
"g	c #C5C33C",
"h	c #898716",
"i	c #A2A01A",
"       .........",
"       .+@#$+@#.",
"       .%&*=%&*.",
"........-;>,-;>.",
".')!~')!@{]^@{].",
"./(_:/(_....+@#.",
".<[}|<[}.  .%&*.",
".1234123....-;>.",
".567~')!~')!@{].",
".890:/(_:/(_+@#.",
".abc|<[}|<[}%&*.",
".def41234123-;>.",
".567g567g567@{].",
".890h890h890....",
".abciabciabc.   ",
".............   "};
