/* XPM */
static char * ltris48_xpm[] = {
"48 48 405 2",
"  	c None",
". 	c #000000",
"+ 	c #EC7F7F",
"@ 	c #E28585",
"# 	c #D89393",
"$ 	c #EE9393",
"% 	c #EB7373",
"& 	c #EA7878",
"* 	c #DB9090",
"= 	c #E48484",
"- 	c #E66767",
"; 	c #F28989",
"> 	c #F69898",
", 	c #DF4F4F",
"' 	c #CF2C2C",
") 	c #BC1414",
"! 	c #CC2A2A",
"~ 	c #D02424",
"{ 	c #CE0E0E",
"] 	c #D82020",
"^ 	c #D93C3C",
"/ 	c #DC5555",
"( 	c #E25D5D",
"_ 	c #EA7272",
": 	c #F28787",
"< 	c #E14141",
"[ 	c #BF1515",
"} 	c #8A0000",
"| 	c #A60202",
"1 	c #AF0202",
"2 	c #BF0404",
"3 	c #D21616",
"4 	c #D62525",
"5 	c #DA3434",
"6 	c #DA4C4C",
"7 	c #E66868",
"8 	c #EC7777",
"9 	c #E03F3F",
"0 	c #B83737",
"a 	c #660000",
"b 	c #7B0000",
"c 	c #940000",
"d 	c #A60000",
"e 	c #BB0000",
"f 	c #CA0808",
"g 	c #D51919",
"h 	c #D73C3C",
"i 	c #E76A6A",
"j 	c #F08282",
"k 	c #E03D3D",
"l 	c #BA3D3D",
"m 	c #620000",
"n 	c #960000",
"o 	c #AD0000",
"p 	c #BF0202",
"q 	c #CD0C0C",
"r 	c #D72929",
"s 	c #DF5555",
"t 	c #ED7878",
"u 	c #F49090",
"v 	c #C54E4E",
"w 	c #640000",
"x 	c #7A0000",
"y 	c #990000",
"z 	c #B60101",
"A 	c #CD0D0D",
"B 	c #D72E2E",
"C 	c #DE5151",
"D 	c #E86D6D",
"E 	c #F18383",
"F 	c #F69696",
"G 	c #DF3C3C",
"H 	c #C75555",
"I 	c #6B0000",
"J 	c #8D0000",
"K 	c #BA0202",
"L 	c #CE0F0F",
"M 	c #D82424",
"N 	c #D84D4D",
"O 	c #E25F5F",
"P 	c #E97070",
"Q 	c #F28686",
"R 	c #F69B9B",
"S 	c #DF3D3D",
"T 	c #BB3C3C",
"U 	c #720000",
"V 	c #A30000",
"W 	c #CA0909",
"X 	c #D52424",
"Y 	c #DA4141",
"Z 	c #DD5555",
"` 	c #E46262",
" .	c #EC7676",
"..	c #F59393",
"+.	c #F8A1A1",
"@.	c #E04848",
"#.	c #C84141",
"$.	c #930000",
"%.	c #C51414",
"&.	c #D74141",
"*.	c #DC4E4E",
"=.	c #E26060",
"-.	c #E66565",
";.	c #EF7F7F",
">.	c #F69A9A",
",.	c #DF5252",
"'.	c #8686E4",
").	c #9494DA",
"!.	c #8888DE",
"~.	c #7373EB",
"{.	c #7B7BEF",
"].	c #9191DE",
"^.	c #8A8AEC",
"/.	c #6767E6",
"(.	c #8989F2",
"_.	c #9898F6",
":.	c #4F4FDF",
"<.	c #8080EE",
"[.	c #E76363",
"}.	c #D82929",
"|.	c #DA2E2E",
"1.	c #DB5252",
"2.	c #E56565",
"3.	c #E96E6E",
"4.	c #F18585",
"5.	c #F38B8B",
"6.	c #DE4B4B",
"7.	c #1414BE",
"8.	c #2C2CD2",
"9.	c #2424D0",
"0.	c #0E0ECE",
"a.	c #2020D8",
"b.	c #3C3CD9",
"c.	c #5555DC",
"d.	c #5D5DE2",
"e.	c #7272EA",
"f.	c #8787F2",
"g.	c #4141E1",
"h.	c #2C2CCF",
"i.	c #E36464",
"j.	c #D83F3F",
"k.	c #D73B3B",
"l.	c #DF5656",
"m.	c #E14949",
"n.	c #DD4F4F",
"o.	c #E46565",
"p.	c #E36363",
"q.	c #EC7575",
"r.	c #DB3535",
"s.	c #00008A",
"t.	c #0202A6",
"u.	c #0202AF",
"v.	c #0404BF",
"w.	c #1616D2",
"x.	c #2525D6",
"y.	c #3434DA",
"z.	c #4C4CDA",
"A.	c #6868E6",
"B.	c #7777EC",
"C.	c #3F3FE0",
"D.	c #1515BF",
"E.	c #D53F3F",
"F.	c #C00F0F",
"G.	c #B20B0B",
"H.	c #BF1010",
"I.	c #CC0D0D",
"J.	c #C71212",
"K.	c #AA1616",
"L.	c #A91515",
"M.	c #AB1919",
"N.	c #AC1A1A",
"O.	c #A80B0B",
"P.	c #000066",
"Q.	c #00007B",
"R.	c #000094",
"S.	c #0000A6",
"T.	c #0000BB",
"U.	c #0808CA",
"V.	c #1919D5",
"W.	c #3C3CD7",
"X.	c #6A6AE7",
"Y.	c #8282F0",
"Z.	c #3D3DE0",
"`.	c #3737B8",
" +	c #000062",
".+	c #000096",
"++	c #0000AD",
"@+	c #0202BF",
"#+	c #0C0CCD",
"$+	c #2929D7",
"%+	c #5555DF",
"&+	c #7878ED",
"*+	c #9090F4",
"=+	c #3D3DBA",
"-+	c #000064",
";+	c #00007A",
">+	c #000099",
",+	c #0101B6",
"'+	c #0D0DCD",
")+	c #2E2ED7",
"!+	c #5151DE",
"~+	c #6D6DE8",
"{+	c #8383F1",
"]+	c #9696F6",
"^+	c #3C3CDF",
"/+	c #4E4EC5",
"(+	c #00006B",
"_+	c #00008D",
":+	c #0202BA",
"<+	c #0F0FCE",
"[+	c #2424D8",
"}+	c #4D4DD8",
"|+	c #5F5FE2",
"1+	c #7070E9",
"2+	c #8686F2",
"3+	c #9B9BF6",
"4+	c #3D3DDF",
"5+	c #5555C7",
"6+	c #000072",
"7+	c #0000A3",
"8+	c #0909CA",
"9+	c #2424D5",
"0+	c #4141DA",
"a+	c #5555DD",
"b+	c #6262E4",
"c+	c #7676EC",
"d+	c #9393F5",
"e+	c #A1A1F8",
"f+	c #4848E0",
"g+	c #3C3CBB",
"h+	c #000093",
"i+	c #1414C5",
"j+	c #4141D7",
"k+	c #4E4EDC",
"l+	c #6060E2",
"m+	c #6565E6",
"n+	c #7F7FEF",
"o+	c #9A9AF6",
"p+	c #5252DF",
"q+	c #4141C8",
"r+	c #2929D8",
"s+	c #2E2EDA",
"t+	c #5252DB",
"u+	c #6565E5",
"v+	c #6E6EE9",
"w+	c #8585F1",
"x+	c #8B8BF3",
"y+	c #4B4BDE",
"z+	c #6363E7",
"A+	c #3F3FD8",
"B+	c #3B3BD7",
"C+	c #5656DF",
"D+	c #4949E1",
"E+	c #4F4FDD",
"F+	c #6565E4",
"G+	c #6363E3",
"H+	c #7575EC",
"I+	c #3535DB",
"J+	c #6464E3",
"K+	c #0F0FC0",
"L+	c #0B0BB2",
"M+	c #1010BF",
"N+	c #0D0DCC",
"O+	c #1212C7",
"P+	c #1616AA",
"Q+	c #1515A9",
"R+	c #1919AB",
"S+	c #1A1AAC",
"T+	c #0B0BA8",
"U+	c #3F3FD5",
"V+	c #E2E086",
"W+	c #DDDC97",
"X+	c #DDDC88",
"Y+	c #E9E772",
"Z+	c #D8D76F",
"`+	c #D7D58F",
" @	c #E2E184",
".@	c #E6E467",
"+@	c #F2F189",
"@@	c #F6F598",
"#@	c #DFDE4F",
"$@	c #BEBB14",
"%@	c #CBC92A",
"&@	c #CBC922",
"*@	c #CECC0E",
"=@	c #D1CE20",
"-@	c #D0CE3A",
";@	c #DAD954",
">@	c #E2DF5D",
",@	c #EAE972",
"'@	c #F2F087",
")@	c #E1DF41",
"!@	c #8A8800",
"~@	c #A6A302",
"{@	c #AFAD02",
"]@	c #BFBC04",
"^@	c #D2D016",
"/@	c #D6D425",
"(@	c #DAD834",
"_@	c #DAD84C",
":@	c #E6E568",
"<@	c #ECEA77",
"[@	c #E0DE3F",
"}@	c #666400",
"|@	c #7B7900",
"1@	c #949200",
"2@	c #A6A300",
"3@	c #BBB800",
"4@	c #CAC708",
"5@	c #D5D219",
"6@	c #D7D53C",
"7@	c #E7E66A",
"8@	c #F0EE82",
"9@	c #E0DE3D",
"0@	c #626000",
"a@	c #969400",
"b@	c #ADAA00",
"c@	c #BFBC02",
"d@	c #CDCB0C",
"e@	c #D7D629",
"f@	c #DFDE55",
"g@	c #EDEC78",
"h@	c #F4F390",
"i@	c #E0DF3F",
"j@	c #646200",
"k@	c #7A7800",
"l@	c #999700",
"m@	c #B6B401",
"n@	c #CDCA0D",
"o@	c #D7D52E",
"p@	c #DEDC51",
"q@	c #E8E76D",
"r@	c #F1EF83",
"s@	c #F6F596",
"t@	c #DFDC3C",
"u@	c #6B6900",
"v@	c #8D8B00",
"w@	c #BAB702",
"x@	c #CECC0F",
"y@	c #D8D624",
"z@	c #D8D64D",
"A@	c #E2E15F",
"B@	c #E9E870",
"C@	c #F2F086",
"D@	c #F6F69B",
"E@	c #DFDE3D",
"F@	c #726F00",
"G@	c #A3A100",
"H@	c #CAC809",
"I@	c #D5D324",
"J@	c #DAD841",
"K@	c #DDDB55",
"L@	c #E4E262",
"M@	c #ECEB76",
"N@	c #F5F393",
"O@	c #F8F7A1",
"P@	c #E0DF48",
"Q@	c #939100",
"R@	c #C5C314",
"S@	c #D7D641",
"T@	c #DCDB4E",
"U@	c #E2E160",
"V@	c #E6E465",
"W@	c #EFEE7F",
"X@	c #F6F59A",
"Y@	c #DFDE52",
"Z@	c #D8D529",
"`@	c #DAD82E",
" #	c #DCDB55",
".#	c #DBD952",
"+#	c #E5E365",
"@#	c #E9E86E",
"##	c #F1F085",
"$#	c #F3F28B",
"%#	c #DEDC4B",
"&#	c #D8D63F",
"*#	c #D7D63B",
"=#	c #DFDE56",
"-#	c #E1E049",
";#	c #DDDB4F",
">#	c #E4E365",
",#	c #E3E263",
"'#	c #ECEA75",
")#	c #DBD935",
"!#	c #C0BE0F",
"~#	c #B2B00B",
"{#	c #BFBC10",
"]#	c #CCC90D",
"^#	c #C7C512",
"/#	c #AAA816",
"(#	c #A9A815",
"_#	c #ABA919",
":#	c #ACAA1A",
"<#	c #A8A60B",
"[#	c #E7E67C",
"}#	c #CFCE2C",
"|#	c #BFBD15",
"1#	c #B8B637",
"2#	c #BAB83D",
"3#	c #C5C34E",
"4#	c #C7C655",
"5#	c #BBBA3C",
"6#	c #C8C641",
"7#	c #E7E663",
"8#	c #E3E264",
"                                                                                                ",
"                                                                                                ",
"                                              . . . . . . . . . . . . . . . . . . . . . . . . . ",
"                                              . + @ # $ % & * = - ; > , + @ # $ % & * = - ; > . ",
"                                              . ' ) ! ~ { ] ^ / ( _ : < ' ) ! ~ { ] ^ / ( _ : . ",
"                                              . [ } | 1 2 3 4 5 6 7 8 9 [ } | 1 2 3 4 5 6 7 8 . ",
"                                              . 0 a b c d e f g h i j k 0 a b c d e f g h i j . ",
"                                              . l m b n o p q r s t u 9 l m b n o p q r s t u . ",
"                                              . v w x y z A B C D E F G v w x y z A B C D E F . ",
"                                              . H I J K L M N O P Q R S H I J K L M N O P Q R . ",
"                                              . T U V W X Y Z `  ...+.@.T U V W X Y Z `  ...+.. ",
". . . . . . . . . . . . . . . . . . . . . . . . #.$.%.&.*.=.-.D ;.>.+.,.#.$.%.&.*.=.-.D ;.>.+.. ",
". '.).!.~.{.].^./.(._.:.<.'.).!.~.{.].^./.(._.:.[.}.|./ / 1.2.7 3.4.5.6.[.}.|./ / 1.2.7 3.4.5.. ",
". 7.8.9.0.a.b.c.d.e.f.g.h.7.8.9.0.a.b.c.d.e.f.g.i.j.k.l.m.n.o.2.p._ q.r.i.j.k.l.m.n.o.2.p._ q.. ",
". s.t.u.v.w.x.y.z.A.B.C.D.s.t.u.v.w.x.y.z.A.B.C.E.F.G.H.I.J.K.K.L.M.N.O.E.F.G.H.I.J.K.K.L.M.N.. ",
". P.Q.R.S.T.U.V.W.X.Y.Z.`.P.Q.R.S.T.U.V.W.X.Y.Z.. . . . . . . . . . . . + @ # $ % & * = - ; > . ",
".  +Q..+++@+#+$+%+&+*+C.=+ +Q..+++@+#+$+%+&+*+C..                     . ' ) ! ~ { ] ^ / ( _ : . ",
". -+;+>+,+'+)+!+~+{+]+^+/+-+;+>+,+'+)+!+~+{+]+^+.                     . [ } | 1 2 3 4 5 6 7 8 . ",
". (+_+:+<+[+}+|+1+2+3+4+5+(+_+:+<+[+}+|+1+2+3+4+.                     . 0 a b c d e f g h i j . ",
". 6+7+8+9+0+a+b+c+d+e+f+g+6+7+8+9+0+a+b+c+d+e+f+.                     . l m b n o p q r s t u . ",
". h+i+j+k+l+m+~+n+o+e+p+q+h+i+j+k+l+m+~+n+o+e+p+.                     . v w x y z A B C D E F . ",
". r+s+c.c.t+u+A.v+w+x+y+z+r+s+c.c.t+u+A.v+w+x+y+.                     . H I J K L M N O P Q R . ",
". A+B+C+D+E+F+u+G+e.H+I+J+A+B+C+D+E+F+u+G+e.H+I+.                     . T U V W X Y Z `  ...+.. ",
". K+L+M+N+O+P+P+Q+R+S+T+U+K+L+M+N+O+P+P+Q+R+S+T+. . . . . . . . . . . . #.$.%.&.*.=.-.D ;.>.+.. ",
". V+W+X+Y+Z+`+ @.@+@@@#@<.'.).!.~.{.].^./.(._.:.<.'.).!.~.{.].^./.(._.:.[.}.|./ / 1.2.7 3.4.5.. ",
". $@%@&@*@=@-@;@>@,@'@)@h.7.8.9.0.a.b.c.d.e.f.g.h.7.8.9.0.a.b.c.d.e.f.g.i.j.k.l.m.n.o.2.p._ q.. ",
". !@~@{@]@^@/@(@_@:@<@[@D.s.t.u.v.w.x.y.z.A.B.C.D.s.t.u.v.w.x.y.z.A.B.C.E.F.G.H.I.J.K.K.L.M.N.. ",
". }@|@1@2@3@4@5@6@7@8@9@`.P.Q.R.S.T.U.V.W.X.Y.Z.`.P.Q.R.S.T.U.V.W.X.Y.Z.+ @ # $ % & * = - ; > . ",
". 0@|@a@b@c@d@e@f@g@h@i@=+ +Q..+++@+#+$+%+&+*+C.=+ +Q..+++@+#+$+%+&+*+C.' ) ! ~ { ] ^ / ( _ : . ",
". j@k@l@m@n@o@p@q@r@s@t@/+-+;+>+,+'+)+!+~+{+]+^+/+-+;+>+,+'+)+!+~+{+]+^+[ } | 1 2 3 4 5 6 7 8 . ",
". u@v@w@x@y@z@A@B@C@D@E@5+(+_+:+<+[+}+|+1+2+3+4+5+(+_+:+<+[+}+|+1+2+3+4+0 a b c d e f g h i j . ",
". F@G@H@I@J@K@L@M@N@O@P@g+6+7+8+9+0+a+b+c+d+e+f+g+6+7+8+9+0+a+b+c+d+e+f+l m b n o p q r s t u . ",
". Q@R@S@T@U@V@q@W@X@O@Y@q+h+i+j+k+l+m+~+n+o+e+p+q+h+i+j+k+l+m+~+n+o+e+p+v w x y z A B C D E F . ",
". Z@`@ # #.#+#:@@###$#%#z+r+s+c.c.t+u+A.v+w+x+y+z+r+s+c.c.t+u+A.v+w+x+y+H I J K L M N O P Q R . ",
". &#*#=#-#;#>#+#,#,@'#)#J+A+B+C+D+E+F+u+G+e.H+I+J+A+B+C+D+E+F+u+G+e.H+I+T U V W X Y Z `  ...+.. ",
". !#~#{#]#^#/#/#(#_#:#<#U+K+L+M+N+O+P+P+Q+R+S+T+U+K+L+M+N+O+P+P+Q+R+S+T+#.$.%.&.*.=.-.D ;.>.+.. ",
". V+W+X+Y+Z+`+ @.@+@@@#@[#V+W+X+Y+Z+`+ @.@+@@@#@[#V+W+X+Y+Z+`+ @.@+@@@#@[.}.|./ / 1.2.7 3.4.5.. ",
". $@%@&@*@=@-@;@>@,@'@)@}#$@%@&@*@=@-@;@>@,@'@)@}#$@%@&@*@=@-@;@>@,@'@)@i.j.k.l.m.n.o.2.p._ q.. ",
". !@~@{@]@^@/@(@_@:@<@[@|#!@~@{@]@^@/@(@_@:@<@[@|#!@~@{@]@^@/@(@_@:@<@[@E.F.G.H.I.J.K.K.L.M.N.. ",
". }@|@1@2@3@4@5@6@7@8@9@1#}@|@1@2@3@4@5@6@7@8@9@1#}@|@1@2@3@4@5@6@7@8@9@. . . . . . . . . . . . ",
". 0@|@a@b@c@d@e@f@g@h@i@2#0@|@a@b@c@d@e@f@g@h@i@2#0@|@a@b@c@d@e@f@g@h@i@.                       ",
". j@k@l@m@n@o@p@q@r@s@t@3#j@k@l@m@n@o@p@q@r@s@t@3#j@k@l@m@n@o@p@q@r@s@t@.                       ",
". u@v@w@x@y@z@A@B@C@D@E@4#u@v@w@x@y@z@A@B@C@D@E@4#u@v@w@x@y@z@A@B@C@D@E@.                       ",
". F@G@H@I@J@K@L@M@N@O@P@5#F@G@H@I@J@K@L@M@N@O@P@5#F@G@H@I@J@K@L@M@N@O@P@.                       ",
". Q@R@S@T@U@V@q@W@X@O@Y@6#Q@R@S@T@U@V@q@W@X@O@Y@6#Q@R@S@T@U@V@q@W@X@O@Y@.                       ",
". Z@`@ # #.#+#:@@###$#%#7#Z@`@ # #.#+#:@@###$#%#7#Z@`@ # #.#+#:@@###$#%#.                       ",
". &#*#=#-#;#>#+#,#,@'#)#8#&#*#=#-#;#>#+#,#,@'#)#8#&#*#=#-#;#>#+#,#,@'#)#.                       ",
". . . . . . . . . . . . . . . . . . . . . . . . . . . . . . . . . . . . .                       "};
