/* XPM */
static char * ltris32_xpm[] = {
"32 32 190 2",
"  	c None",
". 	c #000000",
"+ 	c #E46464",
"@ 	c #D57878",
"# 	c #E46C6C",
"$ 	c #E35656",
"% 	c #DB7676",
"& 	c #E66767",
"* 	c #F08585",
"= 	c #E76565",
"- 	c #AD0F0F",
"; 	c #AE0303",
"> 	c #B80303",
", 	c #D21717",
"' 	c #D73232",
") 	c #DC4E4E",
"! 	c #E86E6E",
"~ 	c #E65757",
"{ 	c #992424",
"] 	c #760000",
"^ 	c #980000",
"/ 	c #B60000",
"( 	c #CC0B0B",
"_ 	c #D93535",
": 	c #EA7070",
"< 	c #E85A5A",
"[ 	c #A23232",
"} 	c #740000",
"| 	c #9E0000",
"1 	c #C80707",
"2 	c #D62C2C",
"3 	c #F18585",
"4 	c #E75E5E",
"5 	c #A23434",
"6 	c #8A0000",
"7 	c #C20505",
"8 	c #D72222",
"9 	c #DB5252",
"0 	c #E86C6C",
"a 	c #F48E8E",
"b 	c #E85F5F",
"c 	c #AC2929",
"d 	c #B00909",
"e 	c #D63434",
"f 	c #DE5757",
"g 	c #E46363",
"h 	c #EE7A7A",
"i 	c #F79D9D",
"j 	c #E76C6C",
"k 	c #7A7ADA",
"l 	c #6767DE",
"m 	c #5757E5",
"n 	c #7979E0",
"o 	c #6767E6",
"p 	c #8585F0",
"q 	c #6565E7",
"r 	c #6565E6",
"s 	c #E25454",
"t 	c #D93838",
"u 	c #E26060",
"v 	c #DD5555",
"w 	c #E86B6B",
"x 	c #F28686",
"y 	c #E55C5C",
"z 	c #0303AE",
"A 	c #0303B8",
"B 	c #1717D2",
"C 	c #3232D7",
"D 	c #4E4EDC",
"E 	c #6E6EE8",
"F 	c #5757E6",
"G 	c #0F0FAD",
"H 	c #D53C3C",
"I 	c #BF1313",
"J 	c #C91C1C",
"K 	c #CF1E1E",
"L 	c #BC2C2C",
"M 	c #BB2C2C",
"N 	c #BF3434",
"O 	c #BA1F1F",
"P 	c #000076",
"Q 	c #000098",
"R 	c #0000B6",
"S 	c #0B0BCC",
"T 	c #3535D9",
"U 	c #7070EA",
"V 	c #5A5AE8",
"W 	c #242499",
"X 	c #000074",
"Y 	c #00009E",
"Z 	c #0707C8",
"` 	c #2C2CD6",
" .	c #6464E4",
"..	c #8585F1",
"+.	c #5E5EE7",
"@.	c #3232A2",
"#.	c #00008A",
"$.	c #0505C2",
"%.	c #2222D7",
"&.	c #5252DB",
"*.	c #6C6CE8",
"=.	c #8E8EF4",
"-.	c #5F5FE8",
";.	c #3434A2",
">.	c #0909B0",
",.	c #3434D6",
"'.	c #5757DE",
").	c #6363E4",
"!.	c #7A7AEE",
"~.	c #9D9DF7",
"{.	c #6C6CE7",
"].	c #2929AC",
"^.	c #3838D9",
"/.	c #6060E2",
"(.	c #5555DD",
"_.	c #6B6BE8",
":.	c #8686F2",
"<.	c #5C5CE5",
"[.	c #5454E2",
"}.	c #1313BF",
"|.	c #1C1CC9",
"1.	c #1E1ECF",
"2.	c #2C2CBC",
"3.	c #2C2CBB",
"4.	c #3434BF",
"5.	c #1F1FBA",
"6.	c #3C3CD5",
"7.	c #DCDB7D",
"8.	c #DBDA66",
"9.	c #D7D551",
"0.	c #D4D274",
"a.	c #E6E467",
"b.	c #F0EF85",
"c.	c #E7E665",
"d.	c #AEAB03",
"e.	c #B8B603",
"f.	c #D2D017",
"g.	c #D7D632",
"h.	c #DCDA4E",
"i.	c #E8E76E",
"j.	c #E6E457",
"k.	c #767400",
"l.	c #989600",
"m.	c #B6B400",
"n.	c #CCC90B",
"o.	c #D9D735",
"p.	c #EAE870",
"q.	c #E8E65A",
"r.	c #747200",
"s.	c #9E9C00",
"t.	c #C8C507",
"u.	c #D6D42C",
"v.	c #E4E364",
"w.	c #F1F085",
"x.	c #E7E65E",
"y.	c #8A8800",
"z.	c #C2C005",
"A.	c #D7D522",
"B.	c #DBD952",
"C.	c #E8E76C",
"D.	c #F4F28E",
"E.	c #E8E65F",
"F.	c #B0AE09",
"G.	c #D6D534",
"H.	c #DEDD57",
"I.	c #E4E263",
"J.	c #EEEC7A",
"K.	c #F7F69D",
"L.	c #E7E66C",
"M.	c #D9D838",
"N.	c #E2E060",
"O.	c #DDDB55",
"P.	c #E8E66C",
"Q.	c #E8E66B",
"R.	c #F2F086",
"S.	c #E5E35C",
"T.	c #BFBD13",
"U.	c #C9C71C",
"V.	c #CFCD1E",
"W.	c #BCBA2C",
"X.	c #BBBA2C",
"Y.	c #BFBD34",
"Z.	c #BAB81F",
"`.	c #DDDC60",
" +	c #ADAB0F",
".+	c #999724",
"++	c #A2A032",
"@+	c #A2A134",
"#+	c #ACAA29",
"$+	c #E2E054",
"                                                                ",
"                              . . . . . . . . . . . . . . . . . ",
"                              . + @ # $ % & * = + @ # $ % & * . ",
"                              . - ; > , ' ) ! ~ - ; > , ' ) ! . ",
"                              . { ] ^ / ( _ : < { ] ^ / ( _ : . ",
"                              . [ } | 1 2 + 3 4 [ } | 1 2 + 3 . ",
"                              . 5 6 7 8 9 0 a b 5 6 7 8 9 0 a . ",
". . . . . . . . . . . . . . . . c d e f g h i j c d e f g h i . ",
". k l m n o p q r k l m n o p q s t u v 0 w x y s t u v 0 w x . ",
". z A B C D E F G z A B C D E F H I J K L M N O H I J K L M N . ",
". P Q R S T U V W P Q R S T U V . . . . . . . . + @ # $ % & * . ",
". X Y Z `  ...+.@.X Y Z `  ...+..             . - ; > , ' ) ! . ",
". #.$.%.&.*.=.-.;.#.$.%.&.*.=.-..             . { ] ^ / ( _ : . ",
". >.,.'.).!.~.{.].>.,.'.).!.~.{..             . [ } | 1 2 + 3 . ",
". ^./.(.*._.:.<.[.^./.(.*._.:.<..             . 5 6 7 8 9 0 a . ",
". }.|.1.2.3.4.5.6.}.|.1.2.3.4.5.. . . . . . . . c d e f g h i . ",
". 7.8.9.0.a.b.c.r k l m n o p q r k l m n o p q s t u v 0 w x . ",
". d.e.f.g.h.i.j.G z A B C D E F G z A B C D E F H I J K L M N . ",
". k.l.m.n.o.p.q.W P Q R S T U V W P Q R S T U V + @ # $ % & * . ",
". r.s.t.u.v.w.x.@.X Y Z `  ...+.@.X Y Z `  ...+.- ; > , ' ) ! . ",
". y.z.A.B.C.D.E.;.#.$.%.&.*.=.-.;.#.$.%.&.*.=.-.{ ] ^ / ( _ : . ",
". F.G.H.I.J.K.L.].>.,.'.).!.~.{.].>.,.'.).!.~.{.[ } | 1 2 + 3 . ",
". M.N.O.P.Q.R.S.[.^./.(.*._.:.<.[.^./.(.*._.:.<.5 6 7 8 9 0 a . ",
". T.U.V.W.X.Y.Z.6.}.|.1.2.3.4.5.6.}.|.1.2.3.4.5.c d e f g h i . ",
". 7.8.9.0.a.b.c.`.7.8.9.0.a.b.c.`.7.8.9.0.a.b.c.s t u v 0 w x . ",
". d.e.f.g.h.i.j. +d.e.f.g.h.i.j. +d.e.f.g.h.i.j.H I J K L M N . ",
". k.l.m.n.o.p.q..+k.l.m.n.o.p.q..+k.l.m.n.o.p.q.. . . . . . . . ",
". r.s.t.u.v.w.x.++r.s.t.u.v.w.x.++r.s.t.u.v.w.x..               ",
". y.z.A.B.C.D.E.@+y.z.A.B.C.D.E.@+y.z.A.B.C.D.E..               ",
". F.G.H.I.J.K.L.#+F.G.H.I.J.K.L.#+F.G.H.I.J.K.L..               ",
". M.N.O.P.Q.R.S.$+M.N.O.P.Q.R.S.$+M.N.O.P.Q.R.S..               ",
". . . . . . . . . . . . . . . . . . . . . . . . .               "};
